<svg width="425" height="201" viewBox="0 0 425 201" fill="none" xmlns="http://www.w3.org/2000/svg">
    <path d="M0 13L25 0.5L50 13L25 25.5L0 13Z" fill="#BD10E0"/>
    <path d="M0 13L25 25.5V50.5L0 38V13Z" fill="#F359FF"/>
    <path d="M25 25.5L50 13V38L25 50.5V25.5Z" fill="#8800AD"/>
    <path d="M0 63L25 50.5L50 63L25 75.5L0 63Z" fill="#BD10E0"/>
    <path d="M0 63L25 75.5V100.5L0 88V63Z" fill="#F359FF"/>
    <path d="M25 75.5L50 63V88L25 100.5V75.5Z" fill="#8800AD"/>
    <path d="M0 113L25 100.5L50 113L25 125.5L0 113Z" fill="#BD10E0"/>
    <path d="M0 113L25 125.5V150.5L0 138V113Z" fill="#F359FF"/>
    <path d="M25 125.5L50 113V138L25 150.5V125.5Z" fill="#8800AD"/>
    <path d="M0 163L25 150.5L50 163L25 175.5L0 163Z" fill="#BD10E0"/>
    <path d="M0 163L25 175.5V200.5L0 188V163Z" fill="#F359FF"/>
    <path d="M25 175.5L50 163V188L25 200.5V175.5Z" fill="#8800AD"/>
    <path d="M50 13L75 0.5L100 13L75 25.5L50 13Z" fill="#BD10E0"/>
    <path d="M50 13L75 25.5V50.5L50 38V13Z" fill="#F359FF"/>
    <path d="M75 25.5L100 13V38L75 50.5V25.5Z" fill="#8800AD"/>
    <path d="M100 13L125 0.5L150 13L125 25.5L100 13Z" fill="#BD10E0"/>
    <path d="M100 13L125 25.5V50.5L100 38V13Z" fill="#F359FF"/>
    <path d="M125 25.5L150 13V38L125 50.5V25.5Z" fill="#8800AD"/>
    <path d="M150 13L175 0.5L200 13L175 25.5L150 13Z" fill="#BD10E0"/>
    <path d="M150 13L175 25.5V50.5L150 38V13Z" fill="#F359FF"/>
    <path d="M175 25.5L200 13V38L175 50.5V25.5Z" fill="#8800AD"/>
    <path d="M150 63L175 50.5L200 63L175 75.5L150 63Z" fill="#BD10E0"/>
    <path d="M150 63L175 75.5V100.5L150 88V63Z" fill="#F359FF"/>
    <path d="M175 75.5L200 63V88L175 100.5V75.5Z" fill="#8800AD"/>
    <path d="M150 113L175 100.5L200 113L175 125.5L150 113Z" fill="#BD10E0"/>
    <path d="M150 113L175 125.5V150.5L150 138V113Z" fill="#F359FF"/>
    <path d="M175 125.5L200 113V138L175 150.5V125.5Z" fill="#8800AD"/>
    <path d="M150 163L175 150.5L200 163L175 175.5L150 163Z" fill="#BD10E0"/>
    <path d="M150 163L175 175.5V200.5L150 188V163Z" fill="#F359FF"/>
    <path d="M175 175.5L200 163V188L175 200.5V175.5Z" fill="#8800AD"/>
    <path d="M50 163L75 150.5L100 163L75 175.5L50 163Z" fill="#BD10E0"/>
    <path d="M50 163L75 175.5V200.5L50 188V163Z" fill="#F359FF"/>
    <path d="M75 175.5L100 163V188L75 200.5V175.5Z" fill="#8800AD"/>
    <path d="M100 163L125 150.5L150 163L125 175.5L100 163Z" fill="#BD10E0"/>
    <path d="M100 163L125 175.5V200.5L100 188V163Z" fill="#F359FF"/>
    <path d="M125 175.5L150 163V188L125 200.5V175.5Z" fill="#8800AD"/>
    <path d="M237.5 13L262.5 0.5L287.5 13L262.5 25.5L237.5 13Z" fill="#BD10E0"/>
    <path d="M237.5 13L262.5 25.5V50.5L237.5 38V13Z" fill="#F359FF"/>
    <path d="M262.5 25.5L287.5 13V38L262.5 50.5V25.5Z" fill="#8800AD"/>
    <path d="M237.5 63L262.5 50.5L287.5 63L262.5 75.5L237.5 63Z" fill="#BD10E0"/>
    <path d="M237.5 63L262.5 75.5V100.5L237.5 88V63Z" fill="#F359FF"/>
    <path d="M262.5 75.5L287.5 63V88L262.5 100.5V75.5Z" fill="#8800AD"/>
    <path d="M237.5 113L262.5 100.5L287.5 113L262.5 125.5L237.5 113Z" fill="#BD10E0"/>
    <path d="M237.5 113L262.5 125.5V150.5L237.5 138V113Z" fill="#F359FF"/>
    <path d="M262.5 125.5L287.5 113V138L262.5 150.5V125.5Z" fill="#8800AD"/>
    <path d="M237.5 163L262.5 150.5L287.5 163L262.5 175.5L237.5 163Z" fill="#BD10E0"/>
    <path d="M237.5 163L262.5 175.5V200.5L237.5 188V163Z" fill="#F359FF"/>
    <path d="M262.5 175.5L287.5 163V188L262.5 200.5V175.5Z" fill="#8800AD"/>
    <path d="M262.5 25.5L287.5 13L312.5 25.5L287.5 38L262.5 25.5Z" fill="#BD10E0"/>
    <path d="M262.5 25.5L287.5 38V63L262.5 50.5V25.5Z" fill="#F359FF"/>
    <path d="M287.5 38L312.5 25.5V50.5L287.5 63V38Z" fill="#8800AD"/>
    <path d="M287.5 38L312.5 25.5L337.5 38L312.5 50.5L287.5 38Z" fill="#BD10E0"/>
    <path d="M287.5 38L312.5 50.5V75.5L287.5 63V38Z" fill="#F359FF"/>
    <path d="M312.5 50.5L337.5 38V63L312.5 75.5V50.5Z" fill="#8800AD"/>
    <path d="M312.5 75.5L337.5 63L362.5 75.5L337.5 88L312.5 75.5Z" fill="#BD10E0"/>
    <path d="M312.5 75.5L337.5 88V113L312.5 100.5V75.5Z" fill="#F359FF"/>
    <path d="M337.5 88L362.5 75.5V100.5L337.5 113V88Z" fill="#8800AD"/>
    <path d="M337.5 113L362.5 100.5L387.5 113L362.5 125.5L337.5 113Z" fill="#BD10E0"/>
    <path d="M337.5 113L362.5 125.5V150.5L337.5 138V113Z" fill="#F359FF"/>
    <path d="M362.5 125.5L387.5 113V138L362.5 150.5V125.5Z" fill="#8800AD"/>
    <path d="M350 150.5L375 138L400 150.5L375 163L350 150.5Z" fill="#BD10E0"/>
    <path d="M350 150.5L375 163V188L350 175.5V150.5Z" fill="#F359FF"/>
    <path d="M375 163L400 150.5V175.5L375 188V163Z" fill="#8800AD"/>
    <path d="M362.5 88L387.5 75.5L412.5 88L387.5 100.5L362.5 88Z" fill="#BD10E0"/>
    <path d="M362.5 88L387.5 100.5V125.5L362.5 113V88Z" fill="#F359FF"/>
    <path d="M387.5 100.5L412.5 88V113L387.5 125.5V100.5Z" fill="#8800AD"/>
    <path d="M362.5 50.5L387.5 38L412.5 50.5L387.5 63L362.5 50.5Z" fill="#BD10E0"/>
    <path d="M362.5 50.5L387.5 63V88L362.5 75.5V50.5Z" fill="#F359FF"/>
    <path d="M387.5 63L412.5 50.5V75.5L387.5 88V63Z" fill="#8800AD"/>
    <path d="M362.5 25.5L387.5 13L412.5 25.5L387.5 38L362.5 25.5Z" fill="#BD10E0"/>
    <path d="M362.5 25.5L387.5 38V63L362.5 50.5V25.5Z" fill="#F359FF"/>
    <path d="M387.5 38L412.5 25.5V50.5L387.5 63V38Z" fill="#8800AD"/>
    <path d="M362.5 125.5L387.5 113L412.5 125.5L387.5 138L362.5 125.5Z" fill="#BD10E0"/>
    <path d="M362.5 125.5L387.5 138V163L362.5 150.5V125.5Z" fill="#F359FF"/>
    <path d="M387.5 138L412.5 125.5V150.5L387.5 163V138Z" fill="#8800AD"/>
    <path d="M375 163L400 150.5L425 163L400 175.5L375 163Z" fill="#BD10E0"/>
    <path d="M375 163L400 175.5V200.5L375 188V163Z" fill="#F359FF"/>
    <path d="M400 175.5L425 163V188L400 200.5V175.5Z" fill="#8800AD"/>
</svg>
