<svg width="24" height="24" viewBox="0 0 24 24" fill="none" xmlns="http://www.w3.org/2000/svg">
    <path d="M12.0001 0C5.37455 0 0.00195312 5.50147 0.00195312 12.2881C0.00195312 17.7173 3.43977 22.3235 8.20702 23.9483C8.80664 24.062 9.02683 23.6817 9.02683 23.3571C9.02683 23.0641 9.01558 22.0961 9.01052 21.0694C5.67262 21.8126 4.9683 19.6195 4.9683 19.6195C4.42248 18.1992 3.63605 17.8214 3.63605 17.8214C2.54751 17.0588 3.71816 17.0746 3.71816 17.0746C4.92293 17.1612 5.55733 18.3408 5.55733 18.3408C6.6275 20.2193 8.36422 19.6763 9.04885 19.3622C9.15656 18.5681 9.46747 18.0259 9.81064 17.7191C7.14567 17.4084 4.34421 16.3548 4.34421 11.6463C4.34421 10.3047 4.81289 9.20851 5.58039 8.34797C5.45582 8.03846 5.04516 6.78874 5.69662 5.09606C5.69662 5.09606 6.70417 4.76582 8.99702 6.35568C9.95405 6.08342 10.9804 5.94691 12.0001 5.94221C13.0197 5.94691 14.047 6.08333 15.0058 6.35568C17.2958 4.76592 18.302 5.09616 18.302 5.09616C18.955 6.78864 18.5442 8.03856 18.4196 8.34797C19.1889 9.20851 19.6544 10.3047 19.6544 11.6463C19.6544 16.366 16.8476 17.4052 14.1759 17.7094C14.6062 18.0907 14.9897 18.8386 14.9897 19.985C14.9897 21.6291 14.9758 22.9524 14.9758 23.3571C14.9758 23.6842 15.1918 24.0673 15.7999 23.9465C20.5645 22.32 23.998 17.7156 23.998 12.2882C23.998 5.50147 18.6262 0 12.0001 0ZM4.49569 17.5046C4.46926 17.5657 4.37543 17.584 4.29004 17.5421C4.20296 17.502 4.15412 17.4188 4.18224 17.3576C4.20811 17.2947 4.30213 17.2771 4.38893 17.3193C4.4761 17.3594 4.52578 17.4434 4.49569 17.5046ZM5.08584 18.044C5.02867 18.0983 4.91675 18.0731 4.84082 17.9872C4.76237 17.9016 4.74765 17.787 4.80567 17.7319C4.86472 17.6775 4.97318 17.703 5.05182 17.7886C5.13037 17.8753 5.14555 17.9891 5.08584 18.044ZM5.49078 18.734C5.4172 18.7863 5.29703 18.7373 5.2227 18.628C5.14921 18.5188 5.14921 18.3877 5.22429 18.3352C5.29881 18.2827 5.4172 18.33 5.49247 18.4384C5.56577 18.5495 5.56586 18.6804 5.49078 18.734ZM6.17532 19.5333C6.10961 19.6076 5.96948 19.5876 5.86694 19.4863C5.76205 19.3872 5.7329 19.2467 5.79888 19.1724C5.86544 19.0979 6.00632 19.1188 6.10961 19.2194C6.21366 19.3183 6.24553 19.4599 6.17532 19.5333ZM7.06037 19.8031C7.03131 19.8994 6.89633 19.9431 6.76051 19.9022C6.62478 19.8601 6.53601 19.7474 6.56339 19.6501C6.5916 19.5532 6.72714 19.5077 6.86399 19.5515C6.99953 19.5933 7.08858 19.7052 7.06037 19.8031ZM8.06745 19.9177C8.07083 20.019 7.95563 20.103 7.81296 20.1049C7.66955 20.1082 7.55341 20.0262 7.55182 19.9263C7.55182 19.8241 7.66449 19.7409 7.80799 19.7384C7.95066 19.7355 8.06745 19.8169 8.06745 19.9177ZM9.05682 19.8788C9.07388 19.9777 8.9748 20.0793 8.83308 20.1063C8.69388 20.1324 8.5649 20.0713 8.54719 19.9733C8.52994 19.8719 8.63089 19.7703 8.7699 19.7441C8.91182 19.7189 9.03873 19.7783 9.05682 19.8788Z" fill="#3B3B3B"/>
</svg>
